<?xml version="1.0" encoding="utf-8"?>
<!-- Svg Vector Icons : http://www.onlinewebfonts.com/icon -->
<!DOCTYPE svg PUBLIC "-//W3C//DTD SVG 1.1//EN" "http://www.w3.org/Graphics/SVG/1.1/DTD/svg11.dtd">
<svg version="1.1" xmlns="http://www.w3.org/2000/svg" xmlns:xlink="http://www.w3.org/1999/xlink" x="0px" y="0px" viewBox="0 0 1000 1000" enable-background="new 0 0 1000 1000" xml:space="preserve">
<metadata> Svg Vector Icons : http://www.onlinewebfonts.com/icon </metadata>
<g><path d="M989.9,785.4c-0.1,1.2-0.2,2.1-0.5,2.7c-0.2,0.7-0.5,1.2-0.9,1.5c-0.4,0.4-0.8,0.5-1.5,0.5s-1.4-0.2-2.3-0.5c-0.9-0.4-1.9-0.7-3-1.1c-1.1-0.3-2.4-0.7-3.8-1c-1.4-0.3-2.9-0.5-4.6-0.5c-1.9,0-3.9,0.4-5.7,1.2c-1.9,0.8-3.8,2.1-5.9,3.8c-2.1,1.8-4.2,4.2-6.5,7.1c-2.3,3-4.8,6.6-7.5,10.8v69c0,0.6-0.2,1.2-0.5,1.6c-0.3,0.4-0.8,0.8-1.5,1.1c-0.7,0.3-1.7,0.5-2.9,0.7c-1.3,0.1-2.9,0.2-4.8,0.2c-1.9,0-3.4-0.1-4.7-0.2c-1.3-0.2-2.2-0.4-3-0.7c-0.7-0.3-1.3-0.7-1.5-1.1c-0.3-0.4-0.4-0.9-0.4-1.6V774.2c0-0.6,0.1-1.1,0.4-1.6s0.7-0.8,1.4-1.2c0.7-0.4,1.6-0.6,2.7-0.7c1.1-0.1,2.5-0.2,4.3-0.2c1.7,0,3.1,0.1,4.3,0.2c1.1,0.1,2,0.3,2.6,0.7c0.6,0.3,1.1,0.7,1.3,1.2c0.3,0.4,0.4,1,0.4,1.6v15.3c2.9-4.2,5.6-7.6,8.1-10.3c2.5-2.6,4.9-4.7,7.2-6.2c2.3-1.5,4.5-2.6,6.7-3.1c2.2-0.6,4.5-0.9,6.7-0.9c1,0,2.2,0.1,3.5,0.2c1.3,0.1,2.6,0.3,4,0.6c1.4,0.3,2.7,0.7,3.8,1c1.1,0.4,1.9,0.8,2.4,1.2c0.5,0.4,0.8,0.8,0.9,1.1c0.1,0.3,0.3,0.8,0.4,1.3c0.1,0.6,0.2,1.3,0.2,2.4c0,1.1,0.1,2.5,0.1,4.3C990,782.8,990,784.2,989.9,785.4z M898.8,830.5h-69.3c0,5.8,0.6,11.1,1.8,15.7c1.2,4.7,3.1,8.7,5.9,12c2.7,3.3,6.3,5.9,10.7,7.7c4.4,1.8,9.8,2.7,16.1,2.7c5,0,9.5-0.4,13.4-1.2c3.9-0.8,7.3-1.7,10.2-2.7c2.9-1,5.2-1.9,7.1-2.7c1.8-0.8,3.2-1.2,4.2-1.2c0.6,0,1,0.1,1.5,0.4c0.4,0.3,0.8,0.7,1,1.2c0.2,0.5,0.4,1.3,0.5,2.3c0.1,1,0.2,2.2,0.2,3.6c0,1,0,1.9-0.1,2.6c-0.1,0.7-0.2,1.4-0.3,2c-0.1,0.6-0.3,1.1-0.6,1.6c-0.3,0.5-0.6,0.9-1.1,1.3c-0.4,0.4-1.7,1.1-3.8,2.1c-2.1,1-4.8,1.9-8.2,2.9c-3.3,0.9-7.2,1.8-11.6,2.5c-4.4,0.7-9.1,1.1-14.1,1.1c-8.7,0-16.2-1.2-22.8-3.6c-6.5-2.4-12-6-16.4-10.7c-4.4-4.7-7.8-10.7-10.1-17.8c-2.3-7.1-3.4-15.5-3.4-24.9c0-9,1.2-17.1,3.5-24.3c2.3-7.2,5.7-13.3,10.1-18.3c4.4-5,9.7-8.9,16-11.5c6.2-2.7,13.2-4,20.9-4c8.3,0,15.3,1.3,21.1,4c5.8,2.6,10.6,6.2,14.3,10.7c3.8,4.5,6.5,9.7,8.2,15.7c1.8,6,2.6,12.4,2.6,19.3v3.5c0,3-0.8,5.2-2.3,6.5C902.5,829.8,900.7,830.5,898.8,830.5z M880.1,792.6c-4.8-5.8-11.8-8.6-21.1-8.6c-4.8,0-9,0.9-12.6,2.7c-3.6,1.8-6.6,4.2-9.1,7.1c-2.4,3-4.3,6.4-5.6,10.3c-1.3,3.9-2.1,8-2.2,12.3h57.4C887.1,806.3,884.9,798.4,880.1,792.6z M903.3,329c-100.2,15.1-216.2,52.5-216.2,52.5s46.5,121.8-52.4,287.1c-5.7,9.5-404.5-34.1-204-185.1c143-107.7,147.3-236.7,50.8-300.5c-57.8-38.3,91.2-81.8,109.7-87.2c-0.2,0,25.8,96,51.1,99.5l0,0C846.1,223.8,916.2,327,903.3,329z M728.2,352.7c-12.6-19.1-49-36.8-49-36.8c-3.3,7.9-61.6,72.4-61.6,72.4C633,382.2,728.2,352.7,728.2,352.7z M507.7,514.4c58.3-17.8,82.9-34.2,82.9-34.2c-33.7-30.2-38.8-51.3-38.8-51.3C553.4,437.5,507.7,514.4,507.7,514.4z M620.3,402c0,0,2.1,50-6.2,69.7c0,0,56.6-26.3,65.2-34.9L620.3,402z M683.8,428.9c0,0,1.3-29.1-3.3-46.8l-51,17.2C629.5,399.3,669.3,423,683.8,428.9z M605.7,492.1l-33.1,69.7l0,0c16.6,0.7,100.3-40.1,100.3-40.1C654.7,517.7,605.7,492.1,605.7,492.1z M605.7,406.6L560.5,425c14.3,33.5,37.2,46.7,37.2,46.7C612.3,437.5,605.7,406.6,605.7,406.6z M587.3,495.4c-8.5,5.9-86.2,31.6-86.2,31.6c23.2,30.2,55.2,43.1,55.2,43.1C578.2,537.3,587.3,495.4,587.3,495.4z M590.5,397.4c1.3-19.7-11.2-27.6-11.2-27.6c-4.6,7.9-84.8,73.7-84.8,73.7C507,434.9,590.5,397.4,590.5,397.4z M583.8,345.4c17.2-21.7,24.5-57.9,24.5-57.9l0,0c-4.6,3.9-47.8,39.5-47.8,39.5C567.6,331.6,583.8,345.4,583.8,345.4z M602.2,276.4c-14.1-9.2-46-17.1-46-17.1c3.6,2,4.2,56.5,4.2,56.5C576.3,301.4,602.2,276.4,602.2,276.4z M613.6,261.2c2.6-43.4-8.6-55.9-8.6-55.9l-44.5,38.1C573,246.1,613.6,261.2,613.6,261.2z M605.7,334.2l57-30.9L620.9,281C621.6,290.8,605.7,334.2,605.7,334.2z M590.5,355.3c6.6,5.3,11.8,38.8,11.8,38.8c5.8-8.6,60.4-77.6,60.4-77.6C619.6,341.5,590.5,355.3,590.5,355.3z M684,446c0,0-55.7,32.9-70,36.8c0,0,32,24.3,61.9,31.6C675.9,514.4,688.2,481.6,684,446z M566,575.6c11.9,13.8,86.3,27,86.3,27c12.4-15.5,20.7-75.6,20.7-75.6C669.3,534.2,566,575.6,566,575.6z M629.5,666.4c6.6-7.9,22.7-53.3,22.7-53.3c-53.4,22.4-118.1,34.8-118.1,34.8C555.8,660.3,629.5,666.4,629.5,666.4z M649.5,605.9c-45-0.7-89-19.7-89-19.7c0.5,3.9-47.5,61.7-47.5,61.7C543.4,646.4,649.5,605.9,649.5,605.9z M507.7,642.7l37.8-56.6l-105.3,28.3C464.6,636.8,507.7,642.7,507.7,642.7z M433.8,613.1l103.7-37.5c-26.5-14.5-51-37.5-51-37.5l-55.6,71L433.8,613.1z M425.5,605.9c0,0,46.4-59.8,49.7-71.7c0,0-60.9,17.1-82.8,17.1l0,0C392.4,551.3,389.1,580.9,425.5,605.9z M465.3,467.7c-64.9,30.9-72.9,77.6-72.9,77.6c11.9,0,86.1-23,86.1-23C464,488.8,465.3,467.7,465.3,467.7z M491.8,509.8c19.2-19.1,38.4-73,38.4-73c-8,2.6-48.3,23.7-48.3,23.7C483.2,499.3,491.8,509.8,491.8,509.8z M513,408.9l-26.5,34.5l79.5-69.1C537.3,386.5,513,408.9,513,408.9z M534.2,382.2c15.9-10,35.1-26.9,35.1-26.9c-5.3-6.6-16.6-9.9-16.6-9.9C552,351.4,534.2,382.2,534.2,382.2z M550.1,237.6l47.7-35.5l-63.6-9.2h0C534.2,192.8,550.1,229.7,550.1,237.6z M537.5,227.7l-10.6-34.9l-29.1-9.9C509.7,191.5,537.5,227.7,537.5,227.7z M482.5,164.6c3.3,3.9,49,14.1,49,14.1l-29.1-33.9C502.4,144.8,479.2,160.6,482.5,164.6z M588.5,102.7c0,0-65.6,28.9-69.5,32.2l0,0c-4,3.3,76.2,13.8,82.1,13.8C607,148.8,588.5,102.7,588.5,102.7z M510.3,140.2c1.3,3.9,39.7,42.7,39.7,42.7h10.4l41.7-25.6C592.2,158.6,510.3,140.2,510.3,140.2z M609,164.6l-34.4,21l46.4,7.2L609,164.6z M690.5,221.1L614,205.3c0,0,16.8,23.7,6.9,53.9C620.9,259.3,685.8,223.1,690.5,221.1L690.5,221.1z M634.7,268.5c11.8,3.3,44.5,22.4,44.5,22.4c25.2-42.7,25.2-67.1,25.2-67.1L634.7,268.5z M713,223.8c0.7,9.9-17.9,67.1-17.9,67.1c33.1-17.1,104.6-36.8,104.6-36.8l0,0C784.5,243.5,713,223.8,713,223.8z M695.1,300c21.6,12.5,44.4,48.7,44.4,48.7c41.7-40.8,66.9-87.5,66.9-87.5C796.4,261.9,695.1,300,695.1,300z M817.6,261.2c-9.9,26.3-60.2,84.1-60.3,84.2c25.8-10.5,137.1-19.7,137.1-19.7C884.5,305.3,817.6,261.2,817.6,261.2z M377.3,647.1c7.9,0,14.1,6.2,14.1,14.2c0,7.9-6.3,14.2-14.2,14.2s-14.3-6.3-14.3-14.2C362.9,653.3,369.2,647.1,377.3,647.1L377.3,647.1z M366.5,661.2c0,6.3,4.7,11.3,10.8,11.3c6,0.1,10.6-5,10.6-11.2c0-6.3-4.6-11.4-10.7-11.4h-0.1C371.1,649.9,366.5,655,366.5,661.2z M383.3,658.1c0,1.7-1.3,2.8-2.9,3.4v0.2c1.4,0.4,2,1.6,2.5,3.5c0.4,2.2,0.8,2.9,1,3.5h-3.4c-0.4-0.5-0.7-1.7-1.1-3.5c-0.2-1.5-1.1-2.2-2.9-2.2H375v5.6h-3.2v-14.2c1.3-0.2,3.1-0.4,5.3-0.4c2.6,0,3.8,0.4,4.7,1.1C382.7,655.7,383.3,656.7,383.3,658.1z M376.9,656.4c-0.8,0-1.4,0.1-1.8,0.2v4.1h1.5c1.8,0,3.2-0.6,3.2-2.1C379.8,657.3,378.9,656.4,376.9,656.4z M344.3,696.3c0.6,1,1.8,1.5,3.4,1.5c0.6,0,1.1,0,1.5-0.1c0.4-0.1,0.8-0.2,1.2-0.3c0.3-0.1,0.6-0.2,0.9-0.3c0.2-0.1,0.5-0.1,0.7-0.1c0.2,0,0.3,0,0.5,0.1c0.1,0.1,0.3,0.3,0.4,0.6c0.1,0.3,0.2,0.7,0.2,1.2c0.1,0.5,0.1,1.1,0.1,1.9c0,1.2-0.1,2.2-0.2,2.8c-0.1,0.7-0.4,1.1-0.6,1.4c-0.3,0.3-0.6,0.5-1.1,0.7c-0.5,0.2-1,0.4-1.7,0.5c-0.6,0.2-1.3,0.3-2.1,0.4c-0.7,0.1-1.5,0.1-2.3,0.1c-2.1,0-3.9-0.3-5.5-0.8s-2.8-1.3-3.8-2.4c-1-1.1-1.7-2.5-2.2-4.1c-0.5-1.7-0.7-3.6-0.7-5.9v-19h-14v30.1c0,0.3-0.1,0.5-0.2,0.7c-0.2,0.2-0.5,0.4-0.8,0.5c-0.4,0.1-0.9,0.2-1.6,0.3c-0.7,0.1-1.5,0.1-2.5,0.1c-1,0-1.8,0-2.5-0.1c-0.7-0.1-1.2-0.2-1.6-0.3c-0.4-0.1-0.7-0.3-0.8-0.5c-0.2-0.2-0.2-0.4-0.2-0.7v-30.1h-4.7c-0.5,0-0.9-0.3-1.2-1c-0.3-0.7-0.4-1.8-0.4-3.3c0-0.8,0-1.5,0.1-2c0.1-0.5,0.2-1,0.3-1.3c0.1-0.3,0.3-0.5,0.5-0.7c0.2-0.1,0.5-0.2,0.7-0.2h4.6v-3.1c0-2.5,0.2-4.7,0.7-6.6c0.5-1.9,1.3-3.5,2.3-4.7c1.1-1.3,2.4-2.2,4.1-2.9c1.6-0.6,3.6-1,5.9-1c1.1,0,2.1,0.1,3.2,0.3c1.1,0.2,1.8,0.4,2.3,0.6c0.5,0.2,0.8,0.4,1,0.6c0.2,0.2,0.3,0.5,0.5,0.8c0.1,0.3,0.2,0.8,0.2,1.3c0,0.5,0.1,1.2,0.1,2c0,0.8,0,1.5-0.1,1.9c0,0.5-0.1,0.9-0.2,1.1c-0.1,0.3-0.2,0.4-0.4,0.5c-0.1,0.1-0.3,0.1-0.5,0.1c-0.2,0-0.4,0-0.6-0.1c-0.2-0.1-0.5-0.2-0.9-0.3c-0.4-0.1-0.8-0.2-1.2-0.3c-0.5-0.1-1-0.1-1.7-0.1c-0.7,0-1.4,0.1-1.9,0.4c-0.5,0.2-1,0.6-1.3,1.1c-0.3,0.5-0.6,1.2-0.8,2c-0.2,0.8-0.3,1.8-0.3,3v3.4h14.1v-8.3c0-0.3,0.1-0.5,0.2-0.7c0.2-0.2,0.5-0.4,0.8-0.6c0.4-0.1,0.9-0.3,1.6-0.3c0.7-0.1,1.5-0.1,2.5-0.1c1,0,1.9,0,2.5,0.1c0.7,0.1,1.2,0.2,1.6,0.3c0.4,0.1,0.7,0.3,0.8,0.6c0.2,0.2,0.3,0.5,0.3,0.7v8.3h8.1c0.3,0,0.5,0.1,0.7,0.2c0.2,0.1,0.4,0.4,0.5,0.7c0.1,0.3,0.2,0.8,0.3,1.3c0.1,0.6,0.1,1.2,0.1,2c0,1.5-0.1,2.6-0.4,3.3c-0.3,0.6-0.7,1-1.2,1h-8.1v17.4C343.4,693.8,343.7,695.3,344.3,696.3z M308,730.8c1.3,0.2,2.3,0.4,3.1,0.7c0.8,0.3,1.3,0.6,1.6,1.1c0.3,0.5,0.5,1,0.5,1.6v130.4h54.3c0.7,0,1.3,0.2,1.8,0.5c0.5,0.3,0.9,0.9,1.3,1.5c0.3,0.7,0.6,1.5,0.8,2.6c0.1,1.1,0.2,2.4,0.2,4c0,1.6-0.1,2.9-0.2,3.9c-0.2,1-0.4,1.9-0.8,2.7c-0.4,0.7-0.8,1.3-1.3,1.6c-0.5,0.3-1.1,0.5-1.8,0.5h-66.9c-1.8,0-3.5-0.6-5.1-1.8c-1.6-1.2-2.4-3.3-2.4-6.3V734.2c0-0.6,0.2-1.2,0.5-1.6c0.3-0.5,0.9-0.8,1.6-1.1c0.8-0.3,1.8-0.5,3.2-0.7c1.3-0.2,2.9-0.3,4.8-0.3C305.1,730.5,306.7,730.6,308,730.8z M292.9,700.8c-1.7,1.9-3.8,3.3-6.4,4.4c-2.6,1-5.6,1.5-9,1.5c-3.3,0-6.2-0.5-8.6-1.4c-2.4-0.9-4.5-2.3-6.1-4c-1.6-1.8-2.8-3.9-3.6-6.4c-0.8-2.6-1.2-5.5-1.2-8.7c0-3.2,0.4-6.1,1.3-8.7c0.8-2.6,2.1-4.9,3.8-6.7c1.7-1.9,3.8-3.3,6.4-4.3c2.5-1,5.5-1.5,9-1.5c3.3,0,6.2,0.5,8.7,1.4c2.5,0.9,4.5,2.2,6.1,4c1.6,1.8,2.8,3.9,3.6,6.5c0.8,2.5,1.2,5.5,1.2,8.8c0,3.2-0.4,6.1-1.3,8.7C295.9,696.7,294.6,699,292.9,700.8z M286.7,680.8c-0.3-1.5-0.8-2.9-1.5-4c-0.7-1.1-1.6-2-2.8-2.7c-1.2-0.6-2.6-1-4.4-1c-1.6,0-2.9,0.3-4.1,0.9c-1.2,0.6-2.1,1.4-2.9,2.5c-0.7,1.1-1.3,2.4-1.7,4c-0.4,1.5-0.6,3.3-0.6,5.3c0,1.8,0.2,3.5,0.5,5c0.3,1.5,0.8,2.9,1.5,4c0.7,1.1,1.6,2,2.8,2.6c1.2,0.6,2.6,0.9,4.3,0.9c1.6,0,3-0.3,4.1-0.9c1.2-0.6,2.1-1.4,2.9-2.5c0.8-1.1,1.3-2.4,1.7-3.9c0.4-1.5,0.5-3.3,0.5-5.3C287.2,684,287,682.4,286.7,680.8z M257.6,822.8c-0.7,5.8-1.9,11.2-3.5,16.3c-1.6,5.1-3.6,9.9-6,14.2s-5.3,8.3-8.5,11.8c5.7,4.7,10.7,8.3,15,10.9c4.3,2.6,7.8,4.6,10.6,5.9c2.8,1.3,5,2.3,6.6,2.9c1.6,0.6,2.7,1.3,3.5,2c0.8,0.7,1.3,1.8,1.6,3.1c0.3,1.4,0.5,3.2,0.5,5.4c0,1.8-0.1,3.3-0.3,4.5c-0.2,1.2-0.5,2.1-0.9,2.8c-0.4,0.7-0.8,1.1-1.3,1.3c-0.5,0.2-0.9,0.3-1.4,0.3c-1.6,0-4.1-0.6-7.5-1.9c-3.5-1.3-7.5-3.1-12-5.6c-4.5-2.5-9.4-5.4-14.5-8.9c-5.2-3.5-10.1-7.6-15-12.2c-3.8,2.3-8.6,4.4-14.5,6.1c-5.8,1.7-12.6,2.6-20.3,2.6c-11.4,0-21.2-1.7-29.5-5c-8.3-3.3-15.2-8.2-20.6-14.7c-5.4-6.4-9.5-14.5-12.1-24.1c-2.7-9.6-4-20.6-4-33c0-12,1.4-22.8,4.3-32.5c2.9-9.7,7.2-17.9,13-24.7c5.8-6.8,13-12,21.6-15.7c8.6-3.7,18.8-5.5,30.3-5.5c10.8,0,20.4,1.7,28.6,5c8.2,3.3,15.1,8.2,20.7,14.6c5.6,6.4,9.8,14.3,12.6,23.7c2.8,9.4,4.2,20.2,4.2,32.4C258.7,811,258.3,817,257.6,822.8z M235.3,782.3c-1.5-7.3-4.1-13.6-7.6-19c-3.6-5.4-8.3-9.6-14.2-12.7c-5.9-3-13.3-4.5-22-4.5c-8.7,0-16.1,1.6-22,4.8c-5.9,3.2-10.7,7.6-14.4,13.1c-3.7,5.5-6.4,11.8-8,19c-1.6,7.2-2.4,14.9-2.4,23c0,8.9,0.7,17,2.2,24.4c1.5,7.4,4,13.9,7.5,19.3c3.5,5.4,8.2,9.7,14.1,12.6c5.9,3,13.3,4.5,22.2,4.5c8.8,0,16.2-1.6,22.2-4.9c6-3.3,10.8-7.7,14.5-13.2c3.7-5.6,6.3-12,7.8-19.3c1.6-7.3,2.3-15.1,2.3-23.3C237.5,797.6,236.8,789.7,235.3,782.3z M247.9,703.5c-1.4,1.1-3.2,1.9-5.1,2.4c-2,0.6-4.1,0.8-6.4,0.8c-1.4,0-2.7-0.1-4-0.3c-1.3-0.2-2.4-0.5-3.4-0.8c-1-0.3-1.9-0.6-2.5-1c-0.7-0.3-1.2-0.7-1.5-0.9c-0.3-0.3-0.6-0.7-0.7-1.4c-0.2-0.6-0.3-1.5-0.3-2.8c0-0.8,0-1.4,0.1-1.9c0.1-0.5,0.1-0.9,0.2-1.2c0.1-0.3,0.3-0.5,0.4-0.6c0.2-0.1,0.4-0.1,0.6-0.1c0.3,0,0.8,0.2,1.4,0.5c0.6,0.3,1.3,0.7,2.2,1.2c0.9,0.4,1.9,0.8,3.1,1.2c1.2,0.4,2.5,0.5,4,0.5c0.9,0,1.8-0.1,2.5-0.3c0.7-0.2,1.4-0.5,1.9-0.8c0.6-0.4,1-0.8,1.2-1.4c0.3-0.6,0.4-1.2,0.4-1.9c0-0.8-0.3-1.6-0.8-2.1c-0.5-0.6-1.2-1.1-2-1.6c-0.8-0.4-1.8-0.9-2.9-1.3c-1.1-0.4-2.2-0.8-3.3-1.3c-1.1-0.5-2.2-1-3.3-1.6c-1.1-0.6-2-1.4-2.9-2.2c-0.8-0.9-1.5-2-2-3.2c-0.5-1.2-0.8-2.7-0.8-4.5c0-1.8,0.4-3.4,1-4.9c0.7-1.5,1.7-2.8,3-3.8c1.3-1.1,2.9-1.9,4.8-2.5c1.9-0.6,4-0.9,6.3-0.9c1.2,0,2.3,0.1,3.4,0.2c1.1,0.2,2.1,0.4,3,0.6c0.9,0.3,1.6,0.5,2.3,0.8c0.6,0.3,1.1,0.5,1.3,0.7c0.3,0.2,0.5,0.4,0.6,0.6c0.1,0.2,0.2,0.5,0.2,0.7c0.1,0.3,0.1,0.7,0.1,1.1c0,0.4,0.1,1,0.1,1.6c0,0.7,0,1.4-0.1,1.8c0,0.5-0.1,0.8-0.2,1.1c-0.1,0.3-0.2,0.5-0.4,0.6c-0.2,0.1-0.4,0.1-0.6,0.1c-0.3,0-0.6-0.1-1.2-0.4c-0.5-0.3-1.2-0.6-2-0.9c-0.8-0.3-1.7-0.6-2.8-0.9c-1-0.3-2.2-0.4-3.6-0.4c-1,0-1.8,0.1-2.5,0.3c-0.7,0.2-1.3,0.5-1.7,0.8c-0.5,0.4-0.8,0.8-1,1.3c-0.2,0.5-0.3,1-0.3,1.6c0,0.9,0.3,1.6,0.8,2.2c0.5,0.6,1.2,1.1,2.1,1.5c0.9,0.4,1.8,0.9,2.9,1.3c1.1,0.4,2.2,0.8,3.3,1.3c1.1,0.5,2.2,1,3.3,1.6s2.1,1.4,2.9,2.2c0.9,0.9,1.6,1.9,2.1,3.2c0.5,1.2,0.8,2.7,0.8,4.4c0,2.1-0.4,4-1.2,5.6C250.4,701.1,249.3,702.4,247.9,703.5z M212.8,700.8c-1.7,1.9-3.8,3.3-6.4,4.4c-2.6,1-5.6,1.5-9,1.5c-3.3,0-6.2-0.5-8.6-1.4c-2.5-0.9-4.5-2.3-6.1-4c-1.6-1.8-2.8-3.9-3.6-6.4c-0.8-2.6-1.2-5.5-1.2-8.7c0-3.2,0.4-6.1,1.3-8.7c0.8-2.6,2.1-4.9,3.8-6.7c1.7-1.9,3.8-3.3,6.4-4.3c2.5-1,5.5-1.5,9-1.5c3.3,0,6.2,0.5,8.7,1.4c2.5,0.9,4.5,2.2,6.1,4c1.6,1.8,2.8,3.9,3.6,6.5c0.8,2.5,1.2,5.5,1.2,8.8c0,3.2-0.4,6.1-1.3,8.7C215.8,696.7,214.5,699,212.8,700.8z M206.6,680.8c-0.3-1.5-0.8-2.9-1.5-4c-0.7-1.1-1.6-2-2.8-2.7c-1.2-0.6-2.6-1-4.4-1c-1.6,0-2.9,0.3-4.1,0.9c-1.2,0.6-2.1,1.4-2.9,2.5c-0.7,1.1-1.3,2.4-1.7,4c-0.4,1.5-0.6,3.3-0.6,5.3c0,1.8,0.2,3.5,0.5,5c0.3,1.5,0.8,2.9,1.5,4c0.7,1.1,1.6,2,2.8,2.6c1.2,0.6,2.6,0.9,4.3,0.9c1.6,0,3-0.3,4.1-0.9c1.2-0.6,2.1-1.4,2.9-2.5c0.8-1.1,1.3-2.4,1.7-3.9c0.4-1.5,0.5-3.3,0.5-5.3C207,684,206.9,682.4,206.6,680.8z M173.4,674.7c-0.1,0.4-0.3,0.6-0.4,0.7c-0.2,0.1-0.4,0.2-0.7,0.2c-0.2,0-0.5,0-0.7-0.1c-0.3-0.1-0.6-0.2-0.9-0.3c-0.3-0.1-0.7-0.2-1.2-0.3c-0.4-0.1-0.9-0.1-1.4-0.1c-0.6,0-1.2,0.1-1.8,0.4c-0.6,0.2-1.2,0.6-1.8,1.1c-0.6,0.5-1.3,1.2-2,2c-0.7,0.8-1.4,1.9-2.2,3.1v23.1c0,0.3-0.1,0.5-0.3,0.7c-0.2,0.2-0.5,0.4-0.9,0.5c-0.4,0.1-0.9,0.2-1.6,0.3c-0.7,0.1-1.5,0.1-2.5,0.1c-1,0-1.9,0-2.5-0.1c-0.7-0.1-1.2-0.2-1.6-0.3c-0.4-0.1-0.7-0.3-0.9-0.5c-0.2-0.2-0.3-0.4-0.3-0.7v-37.1c0-0.3,0.1-0.5,0.2-0.7c0.1-0.2,0.4-0.4,0.7-0.5c0.4-0.1,0.8-0.2,1.4-0.3c0.6-0.1,1.3-0.1,2.2-0.1c0.9,0,1.6,0,2.2,0.1c0.6,0.1,1,0.2,1.4,0.3c0.3,0.1,0.6,0.3,0.7,0.5c0.1,0.2,0.2,0.5,0.2,0.7v4.6c1-1.4,1.9-2.5,2.8-3.4c0.9-0.9,1.7-1.6,2.5-2.1s1.6-0.9,2.3-1.1c0.8-0.2,1.6-0.3,2.3-0.3c0.4,0,0.7,0,1.2,0.1c0.4,0,0.9,0.1,1.3,0.2c0.4,0.1,0.8,0.2,1.2,0.3c0.3,0.1,0.6,0.3,0.7,0.4c0.2,0.1,0.3,0.3,0.3,0.5c0.1,0.2,0.1,0.4,0.2,0.7c0,0.3,0.1,0.7,0.1,1.3c0,0.6,0,1.4,0,2.4c0,1,0,1.8-0.1,2.5C173.6,673.8,173.5,674.3,173.4,674.7z M141.9,701.5c-0.1,0.3-0.2,0.6-0.3,0.8c-0.1,0.2-0.3,0.5-0.6,0.8c-0.3,0.3-0.9,0.7-1.7,1.2c-0.8,0.5-1.7,0.9-2.8,1.2c-1,0.4-2.2,0.7-3.4,0.9c-1.2,0.2-2.5,0.3-3.7,0.3c-2.9,0-5.4-0.4-7.6-1.3c-2.2-0.9-4.1-2.2-5.6-3.9c-1.5-1.7-2.6-3.8-3.4-6.3c-0.8-2.5-1.1-5.4-1.1-8.6c0-3.7,0.5-6.9,1.4-9.6c0.9-2.7,2.2-4.9,3.9-6.7c1.7-1.8,3.6-3.1,5.9-4c2.3-0.9,4.8-1.3,7.5-1.3c1.1,0,2.2,0.1,3.3,0.3c1.1,0.2,2.1,0.5,3,0.8c0.9,0.3,1.8,0.7,2.5,1.1c0.7,0.4,1.3,0.8,1.6,1.1c0.3,0.3,0.5,0.6,0.6,0.8c0.1,0.2,0.2,0.5,0.3,0.8c0.1,0.3,0.1,0.7,0.2,1.2c0,0.5,0.1,1.1,0.1,1.8c0,1.6-0.1,2.7-0.4,3.4c-0.3,0.7-0.6,1-1.1,1c-0.5,0-1-0.2-1.5-0.6c-0.5-0.4-1.2-0.8-1.9-1.3c-0.7-0.5-1.6-0.9-2.6-1.3c-1-0.4-2.2-0.6-3.6-0.6c-2.7,0-4.8,1-6.3,3.1c-1.4,2.1-2.2,5.2-2.2,9.2c0,2,0.2,3.8,0.6,5.3c0.4,1.5,0.9,2.8,1.6,3.8c0.7,1,1.6,1.8,2.7,2.3c1.1,0.5,2.3,0.8,3.7,0.8c1.4,0,2.7-0.2,3.7-0.6s1.9-0.9,2.7-1.4c0.8-0.5,1.4-1,2-1.4c0.5-0.4,1-0.6,1.3-0.6c0.2,0,0.5,0.1,0.6,0.2c0.2,0.1,0.3,0.4,0.4,0.8c0.1,0.4,0.2,0.8,0.2,1.4c0,0.6,0.1,1.3,0.1,2.2c0,0.7,0,1.3-0.1,1.8C142,700.8,142,701.2,141.9,701.5z M98.2,660.3c-2.4,0-4-0.4-4.8-1.2c-0.8-0.8-1.2-2.2-1.2-4.2c0-2.1,0.4-3.6,1.3-4.4c0.8-0.8,2.4-1.2,4.8-1.2c2.3,0,3.9,0.4,4.8,1.2c0.8,0.8,1.3,2.2,1.3,4.2c0,2.1-0.4,3.6-1.3,4.4C102.1,659.9,100.5,660.3,98.2,660.3z M94.1,741.7c0.1,0.7,0.3,1.5,0.3,2.4c0.1,0.9,0.1,2.1,0.1,3.6c0,1.4-0.1,2.6-0.2,3.7c-0.1,1.1-0.3,2-0.5,2.7c-0.2,0.7-0.6,1.3-1,1.6c-0.4,0.3-0.9,0.5-1.5,0.5c-0.9,0-2.2-0.5-4-1.6c-1.8-1.1-4.1-2.3-6.7-3.7c-2.7-1.3-5.8-2.6-9.4-3.7c-3.6-1.1-7.7-1.7-12.2-1.7c-4.2,0-7.9,0.6-11,1.7c-3.1,1.1-5.7,2.6-7.7,4.5c-2,1.9-3.5,4.1-4.6,6.7c-1,2.6-1.5,5.3-1.5,8.2c0,4.2,1,7.8,2.9,10.8c1.9,3,4.5,5.7,7.8,8c3.2,2.3,6.9,4.5,11.1,6.4c4.1,1.9,8.3,3.9,12.6,5.9c4.3,2,8.5,4.2,12.6,6.5c4.1,2.4,7.8,5.2,11.1,8.4c3.2,3.2,5.8,7,7.8,11.4c2,4.4,3,9.6,3,15.6c0,7.1-1.3,13.4-3.9,18.9c-2.6,5.5-6.2,10.2-10.9,14.1c-4.6,3.8-10.1,6.7-16.4,8.7c-6.3,1.9-13,2.9-20.3,2.9c-5.1,0-9.8-0.4-14.1-1.3c-4.3-0.9-8.2-1.9-11.6-3.1c-3.4-1.3-6.2-2.5-8.6-3.8c-2.3-1.3-3.9-2.5-4.8-3.4c-0.9-0.9-1.6-2.1-2-3.6c-0.4-1.4-0.6-3.4-0.6-5.8c0-1.7,0.1-3.1,0.2-4.3c0.2-1.1,0.4-2,0.7-2.7c0.3-0.7,0.7-1.2,1.2-1.5c0.5-0.3,1-0.4,1.6-0.4c1.1,0,2.6,0.7,4.6,2c2,1.3,4.5,2.8,7.7,4.3c3.1,1.6,6.9,3,11.3,4.4c4.4,1.4,9.5,2,15.3,2c4.4,0,8.4-0.6,12-1.8c3.6-1.2,6.7-2.8,9.4-4.9c2.6-2.1,4.6-4.8,6-7.9c1.4-3.1,2.1-6.6,2.1-10.6c0-4.3-1-7.9-2.9-11c-1.9-3-4.5-5.7-7.7-8c-3.2-2.3-6.8-4.4-10.9-6.3c-4.1-1.9-8.3-3.8-12.6-5.8c-4.3-2-8.5-4.2-12.5-6.6c-4.1-2.4-7.7-5.2-10.9-8.5c-3.2-3.3-5.8-7.1-7.8-11.5c-2-4.4-3-9.7-3-15.8c0-6.3,1.1-11.9,3.4-16.8s5.5-9.1,9.6-12.4c4.1-3.3,9-5.9,14.6-7.6c5.6-1.7,11.8-2.6,18.3-2.6c3.4,0,6.7,0.3,10.1,0.9c3.4,0.6,6.6,1.4,9.6,2.3c3,1,5.7,2.1,8,3.3c2.3,1.2,3.9,2.2,4.6,2.9c0.7,0.7,1.2,1.3,1.5,1.8C93.8,740.5,94,741.1,94.1,741.7z M80.7,705.6c-0.4,0.1-0.9,0.3-1.6,0.3c-0.7,0.1-1.5,0.1-2.5,0.1c-1,0-1.8,0-2.5-0.1c-0.7-0.1-1.2-0.2-1.6-0.3c-0.4-0.1-0.7-0.3-0.8-0.5c-0.2-0.2-0.2-0.5-0.2-0.7v-43.8h-0.1l-15.7,43.8c-0.1,0.4-0.3,0.7-0.5,0.9c-0.3,0.2-0.6,0.4-1,0.6c-0.4,0.1-1,0.2-1.7,0.3c-0.7,0-1.5,0.1-2.4,0.1c-1,0-1.8,0-2.4-0.1c-0.7-0.1-1.2-0.2-1.7-0.3c-0.4-0.1-0.8-0.3-1-0.6c-0.2-0.2-0.4-0.5-0.5-0.8l-15.1-43.8h-0.1v43.8c0,0.3-0.1,0.5-0.2,0.7c-0.1,0.2-0.4,0.4-0.8,0.5c-0.4,0.1-1,0.3-1.6,0.3c-0.6,0.1-1.5,0.1-2.5,0.1c-1,0-1.8,0-2.5-0.1c-0.7-0.1-1.2-0.2-1.6-0.3c-0.4-0.1-0.7-0.3-0.8-0.5c-0.2-0.2-0.2-0.5-0.2-0.7v-48c0-1.4,0.4-2.5,1.1-3.2c0.8-0.7,1.8-1.1,3-1.1h7.2c1.3,0,2.4,0.1,3.3,0.3c0.9,0.2,1.7,0.5,2.4,1c0.7,0.5,1.2,1.1,1.7,1.9c0.5,0.8,0.8,1.8,1.2,2.9l11.7,32.1h0.2l12.1-32c0.4-1.2,0.8-2.1,1.2-3c0.4-0.8,0.9-1.5,1.5-2c0.6-0.5,1.3-0.8,2-1.1c0.8-0.2,1.7-0.3,2.7-0.3h7.4c0.8,0,1.4,0.1,1.9,0.3c0.5,0.2,1,0.5,1.3,0.9c0.3,0.4,0.6,0.8,0.8,1.4c0.2,0.5,0.3,1.2,0.3,1.8v48c0,0.3-0.1,0.5-0.2,0.7C81.4,705.3,81.1,705.5,80.7,705.6z M100.8,705.9c-0.7,0.1-1.5,0.1-2.5,0.1c-1,0-1.9,0-2.5-0.1c-0.7-0.1-1.2-0.2-1.6-0.3c-0.4-0.1-0.7-0.3-0.9-0.5c-0.2-0.2-0.3-0.4-0.3-0.7v-37.1c0-0.3,0.1-0.5,0.3-0.7c0.2-0.2,0.5-0.4,0.9-0.5c0.4-0.2,0.9-0.3,1.6-0.4c0.7-0.1,1.5-0.1,2.5-0.1c1,0,1.9,0,2.5,0.1c0.7,0.1,1.2,0.2,1.6,0.4c0.4,0.1,0.7,0.3,0.9,0.5c0.2,0.2,0.3,0.5,0.3,0.7v37.1c0,0.3-0.1,0.5-0.3,0.7c-0.2,0.2-0.5,0.4-0.9,0.5C102,705.8,101.4,705.9,100.8,705.9z M415.5,856.2c0.3-0.7,0.7-1.2,1.2-1.5c0.5-0.3,1-0.4,1.6-0.4c1.1,0,2.6,0.7,4.6,2c2,1.3,4.5,2.8,7.7,4.3c3.1,1.6,6.9,3,11.3,4.4c4.4,1.4,9.5,2,15.3,2c4.4,0,8.4-0.6,12-1.8c3.6-1.2,6.7-2.8,9.4-4.9c2.6-2.1,4.6-4.8,6-7.9c1.4-3.1,2.1-6.6,2.1-10.6c0-4.3-1-7.9-2.9-11c-1.9-3-4.5-5.7-7.7-8c-3.2-2.3-6.8-4.4-10.9-6.3c-4.1-1.9-8.3-3.8-12.6-5.8c-4.3-2-8.5-4.2-12.5-6.6c-4.1-2.4-7.7-5.2-10.9-8.5c-3.2-3.3-5.8-7.1-7.8-11.5c-2-4.4-3-9.7-3-15.8c0-6.3,1.2-11.9,3.5-16.8c2.3-4.9,5.5-9.1,9.6-12.4c4.1-3.3,9-5.9,14.6-7.6c5.6-1.7,11.7-2.6,18.3-2.6c3.4,0,6.7,0.3,10.1,0.9c3.4,0.6,6.6,1.4,9.6,2.3c3,1,5.7,2.1,8,3.3c2.3,1.2,3.9,2.2,4.6,2.9c0.7,0.7,1.2,1.3,1.5,1.8c0.2,0.4,0.4,1,0.6,1.6c0.2,0.7,0.3,1.5,0.4,2.4c0.1,0.9,0.1,2.1,0.1,3.6c0,1.4-0.1,2.6-0.2,3.7c-0.1,1.1-0.3,2-0.5,2.7c-0.2,0.7-0.6,1.3-1,1.6c-0.4,0.3-0.9,0.5-1.5,0.5c-0.9,0-2.2-0.5-4-1.6c-1.8-1.1-4.1-2.3-6.7-3.7c-2.6-1.3-5.8-2.6-9.4-3.7c-3.6-1.1-7.7-1.7-12.2-1.7c-4.2,0-7.9,0.6-11,1.7c-3.1,1.1-5.7,2.6-7.7,4.5c-2,1.9-3.6,4.1-4.6,6.7c-1,2.6-1.5,5.3-1.5,8.2c0,4.2,1,7.8,2.9,10.8c1.9,3,4.5,5.7,7.8,8c3.2,2.3,6.9,4.5,11.1,6.4c4.1,1.9,8.4,3.9,12.6,5.9c4.3,2,8.5,4.2,12.6,6.5c4.1,2.4,7.8,5.2,11,8.4c3.2,3.2,5.9,7,7.8,11.4c2,4.4,3,9.6,3,15.6c0,7.1-1.3,13.4-3.9,18.9c-2.6,5.5-6.2,10.2-10.9,14.1c-4.6,3.8-10.1,6.7-16.4,8.7c-6.3,1.9-13,2.9-20.3,2.9c-5.1,0-9.8-0.4-14.1-1.3c-4.3-0.9-8.2-1.9-11.6-3.1c-3.4-1.3-6.2-2.5-8.5-3.8c-2.3-1.3-3.9-2.5-4.8-3.4c-0.9-0.9-1.6-2.1-2-3.6c-0.4-1.4-0.6-3.4-0.6-5.8c0-1.7,0.1-3.1,0.2-4.3C415,857.9,415.2,856.9,415.5,856.2z M533.7,784.5c4.4-5,9.7-8.9,16-11.5c6.2-2.7,13.2-4,20.9-4c8.3,0,15.3,1.3,21.1,4c5.8,2.6,10.6,6.2,14.3,10.7c3.7,4.5,6.5,9.7,8.2,15.7c1.8,6,2.6,12.4,2.6,19.3v3.5c0,3-0.8,5.2-2.3,6.5c-1.5,1.3-3.3,1.9-5.2,1.9h-69.3c0,5.8,0.6,11.1,1.8,15.7c1.2,4.7,3.1,8.7,5.9,12c2.7,3.3,6.3,5.9,10.7,7.7c4.4,1.8,9.8,2.7,16.1,2.7c5,0,9.5-0.4,13.4-1.2c3.9-0.8,7.3-1.7,10.2-2.7c2.9-1,5.2-1.9,7.1-2.7c1.8-0.8,3.2-1.2,4.2-1.2c0.6,0,1,0.1,1.5,0.4c0.4,0.3,0.8,0.7,1,1.2c0.2,0.5,0.4,1.3,0.5,2.3c0.1,1,0.2,2.2,0.2,3.6c0,1,0,1.9-0.1,2.6c-0.1,0.7-0.2,1.4-0.3,2c-0.1,0.6-0.3,1.1-0.6,1.6c-0.3,0.5-0.6,0.9-1.1,1.3c-0.4,0.4-1.7,1.1-3.8,2.1c-2.1,1-4.8,1.9-8.2,2.9c-3.3,0.9-7.2,1.8-11.6,2.5c-4.4,0.7-9.1,1.1-14.1,1.1c-8.7,0-16.2-1.2-22.8-3.6c-6.5-2.4-12-6-16.4-10.7c-4.4-4.7-7.8-10.7-10.1-17.8c-2.3-7.1-3.4-15.5-3.4-24.9c0-9,1.2-17.1,3.5-24.3C525.9,795.6,529.3,789.5,533.7,784.5z M597.5,816.4c0.2-10.1-2-18-6.8-23.8c-4.8-5.8-11.8-8.6-21.1-8.6c-4.8,0-9,0.9-12.6,2.7c-3.6,1.8-6.6,4.2-9.1,7.1c-2.4,3-4.3,6.4-5.6,10.3c-1.3,3.9-2.1,8-2.2,12.3H597.5z M640.8,771.4c0.7-0.4,1.6-0.6,2.7-0.7c1.1-0.1,2.5-0.2,4.3-0.2c1.7,0,3.1,0.1,4.3,0.2c1.1,0.1,2,0.3,2.6,0.7c0.6,0.3,1.1,0.7,1.3,1.2c0.3,0.4,0.4,1,0.4,1.6v15.3c2.9-4.2,5.6-7.6,8.1-10.3c2.5-2.6,4.9-4.7,7.2-6.2c2.3-1.5,4.5-2.6,6.7-3.1c2.2-0.6,4.5-0.9,6.7-0.9c1,0,2.2,0.1,3.5,0.2c1.3,0.1,2.6,0.3,4,0.6c1.4,0.3,2.7,0.7,3.8,1c1.1,0.4,1.9,0.8,2.4,1.2c0.5,0.4,0.8,0.8,0.9,1.1c0.1,0.3,0.3,0.8,0.4,1.3c0.1,0.6,0.2,1.3,0.2,2.4c0,1.1,0.1,2.5,0.1,4.3c0,1.7,0,3.1-0.1,4.3c-0.1,1.2-0.2,2.1-0.5,2.7c-0.2,0.7-0.5,1.2-0.9,1.5c-0.4,0.4-0.8,0.5-1.5,0.5c-0.6,0-1.4-0.2-2.3-0.5c-0.9-0.4-1.9-0.7-3-1.1c-1.1-0.3-2.4-0.7-3.8-1c-1.4-0.3-2.9-0.5-4.6-0.5c-1.9,0-3.9,0.4-5.7,1.2c-1.9,0.8-3.8,2.1-5.9,3.8c-2.1,1.8-4.2,4.2-6.5,7.1c-2.3,3-4.8,6.6-7.5,10.8v69c0,0.6-0.2,1.2-0.5,1.6c-0.3,0.4-0.8,0.8-1.5,1.1c-0.7,0.3-1.7,0.5-2.9,0.7c-1.3,0.1-2.9,0.2-4.8,0.2c-1.9,0-3.4-0.1-4.7-0.2c-1.3-0.2-2.2-0.4-3-0.7c-0.7-0.3-1.3-0.7-1.5-1.1c-0.3-0.4-0.4-0.9-0.4-1.6V774.2c0-0.6,0.1-1.1,0.4-1.6S640.1,771.8,640.8,771.4z M703.6,771.2c0.7-0.3,1.7-0.5,2.9-0.5c1.2-0.1,2.7-0.1,4.5-0.1c2.3,0,4.1,0.1,5.4,0.2c1.4,0.1,2.4,0.3,3.1,0.6c0.7,0.3,1.3,0.7,1.6,1.2c0.4,0.5,0.7,1.1,1,1.8l29.7,86.5l0.5,1.4l0.4-1.4l29.4-86.5c0.2-0.7,0.4-1.3,0.8-1.8c0.4-0.5,1-0.9,1.7-1.2c0.7-0.3,1.8-0.5,3-0.6c1.3-0.1,3-0.2,5.1-0.2c1.8,0,3.3,0,4.4,0.1c1.2,0.1,2.1,0.3,2.8,0.6c0.7,0.3,1.1,0.7,1.4,1.1c0.3,0.4,0.4,1,0.4,1.6c0,0.3,0,0.6-0.1,1c0,0.4-0.1,0.7-0.2,1.1c-0.1,0.4-0.2,0.8-0.3,1.3c-0.1,0.5-0.3,1-0.4,1.5l-35.9,99.7c-0.3,0.9-0.7,1.6-1.2,2.1c-0.5,0.6-1.3,1-2.3,1.3c-1,0.3-2.3,0.5-3.9,0.6c-1.6,0.1-3.5,0.2-5.8,0.2s-4.3-0.1-5.9-0.2c-1.6-0.2-2.8-0.4-3.8-0.7c-1-0.3-1.7-0.7-2.3-1.3c-0.6-0.5-1-1.2-1.3-2l-35.8-99.7c-0.3-0.9-0.6-1.8-0.8-2.5c-0.2-0.7-0.3-1.2-0.4-1.6c0-0.4-0.1-0.7-0.1-0.9c0-0.6,0.2-1.2,0.5-1.6C702.3,771.9,702.8,771.5,703.6,771.2z"/></g>
</svg>